<?xml version="1.0" encoding="UTF-8"?>
<!-- Generator: Adobe Illustrator 16.0.0, SVG Export Plug-In . SVG Version: 6.00 Build 0)  -->
<!DOCTYPE svg PUBLIC "-//W3C//DTD SVG 1.1//EN" "http://www.w3.org/Graphics/SVG/1.1/DTD/svg11.dtd">
<svg version="1.1" id="Layer_1" xmlns="http://www.w3.org/2000/svg" xmlns:xlink="http://www.w3.org/1999/xlink" x="0px" y="0px" width="400px" height="82px" viewBox="0 0 400 82" enable-background="new 0 0 400 82" xml:space="preserve">
<text transform="matrix(1 0 0 1 69.7529 415.1504)"><tspan x="0" y="0" font-family="'Poppins-ExtraBold'" font-size="72" letter-spacing="-3">A</tspan><tspan x="50.544" y="0" font-family="'Poppins-ExtraBold'" font-size="72" letter-spacing="1">V</tspan><tspan x="105.983" y="0" font-family="'Poppins-ExtraBold'" font-size="72" letter-spacing="3">ONE</tspan></text>
<g>
	<path d="M54.766,67.227H27.107L22.81,80.229H0L28.54,2.543h25.014l28.43,77.687h-22.92L54.766,67.227z M49.367,50.918   l-8.375-25.345l-8.485,25.345H49.367z"/>
	<path d="M100.386,2.212l17.631,56.199l17.521-56.199h23.03l-26.667,78.018h-27.878L77.356,2.212H100.386z"/>
	<path d="M225.401,6.124c6.062,3.416,10.835,8.173,14.326,14.27c3.488,6.099,5.234,12.968,5.234,20.607   c0,7.641-1.764,14.509-5.291,20.605c-3.527,6.099-8.318,10.854-14.381,14.27c-6.059,3.417-12.725,5.125-19.998,5.125   c-7.272,0-13.959-1.708-20.057-5.125c-6.099-3.416-10.908-8.171-14.435-14.27c-3.527-6.097-5.288-12.965-5.288-20.605   c0-7.64,1.761-14.509,5.288-20.607c3.527-6.097,8.336-10.854,14.435-14.27c6.098-3.416,12.784-5.125,20.057-5.125   C212.637,0.999,219.342,2.708,225.401,6.124z M192.289,26.399c-3.159,3.564-4.741,8.43-4.741,14.602   c0,6.023,1.582,10.836,4.741,14.435c3.157,3.601,7.491,5.399,13.003,5.399c5.435,0,9.733-1.799,12.893-5.399   c3.156-3.599,4.738-8.411,4.738-14.435c0-6.172-1.563-11.037-4.684-14.602c-3.125-3.563-7.438-5.345-12.947-5.345   C199.78,21.055,195.446,22.837,192.289,26.399z"/>
	<path d="M332.231,80.229h-21.707l-28.648-43.526v43.526h-21.711V2.322h21.711l28.648,44.077V2.322h21.707V80.229z"/>
	<path d="M371.462,19.513v12.893h25.232v16.419h-25.232v14.104H400v17.301h-50.249V2.212H400v17.301H371.462z"/>
</g>
</svg>